<svg width="13" height="11" viewBox="0 0 13 11" xmlns="http://www.w3.org/2000/svg">
    <g fill-rule="nonzero" fill="none">
        <path d="M12.833 9.175 7.573.585A1.233 1.233 0 0 0 6.506 0C6.06 0 5.663.219 5.44.584L.18 9.174c-.223.39-.248.828-.024 1.218.223.389.62.608 1.091.608h10.494c.447 0 .868-.219 1.092-.608a1.189 1.189 0 0 0 0-1.217z" fill="#B10000"/>
        <path d="M6.506 6.887a.724.724 0 0 1-.744-.73V3.723c0-.413.323-.73.744-.73.422 0 .745.317.745.73v2.434c0 .414-.323.73-.745.73zm0 2.434a.682.682 0 0 1-.52-.22.533.533 0 0 1-.1-.12c-.025-.05-.05-.074-.074-.123-.025-.048-.025-.097-.05-.146 0-.048-.025-.097-.025-.146 0-.194.075-.389.224-.51a.776.776 0 0 1 1.042 0 .694.694 0 0 1 .223.51c0 .049 0 .098-.025.146a.341.341 0 0 1-.05.146c-.024.05-.05.098-.074.122a.429.429 0 0 1-.1.122c-.074.146-.272.219-.47.219z" fill="#FFF"/>
    </g>
</svg>
